<?xml version="1.0" encoding="utf-8" standalone="no"?>
<!DOCTYPE svg PUBLIC "-//W3C//DTD SVG 1.1//EN"
  "http://www.w3.org/Graphics/SVG/1.1/DTD/svg11.dtd">
<!-- Created with matplotlib (https://matplotlib.org/) -->
<svg height="270pt" version="1.1" viewBox="0 0 277.2 270" width="277.2pt" xmlns="http://www.w3.org/2000/svg" xmlns:xlink="http://www.w3.org/1999/xlink">
 <defs>
  <style type="text/css">
*{stroke-linecap:butt;stroke-linejoin:round;}
  </style>
 </defs>
 <g id="figure_1">
  <g id="patch_1">
   <path d="M 0 270 
L 277.2 270 
L 277.2 0 
L 0 0 
z
" style="fill:#f2f2f2;"/>
  </g>
  <g id="axes_1">
   <g id="patch_2">
    <path d="M 44 239.4 
L 266.8 239.4 
L 266.8 16.6 
L 44 16.6 
z
" style="fill:#ffffff;"/>
   </g>
   <g id="matplotlib.axis_1">
    <g id="xtick_1">
     <g id="line2d_1">
      <path clip-path="url(#pc41fda91fb)" d="M 44 239.4 
L 44 16.6 
" style="fill:none;stroke:#000000;stroke-linecap:square;stroke-linejoin:miter;stroke-opacity:0.1;stroke-width:0.6;"/>
     </g>
     <g id="line2d_2">
      <defs>
       <path d="M 0 0 
L 0 4 
" id="ma7f4384f8b" style="stroke:#000000;stroke-width:0.6;"/>
      </defs>
      <g>
       <use style="stroke:#000000;stroke-width:0.6;" x="44" xlink:href="#ma7f4384f8b" y="239.4"/>
      </g>
     </g>
     <g id="text_1">
      <!-- 0 -->
      <defs>
       <path d="M 13.203125 34.90625 
Q 13.203125 37.5 13.25 40.640625 
Q 13.296875 43.796875 13.75 46.9375 
Q 14.203125 50.09375 15.046875 53.09375 
Q 15.90625 56.09375 17.546875 58.34375 
Q 19.203125 60.59375 21.703125 62 
Q 24.203125 63.40625 27.796875 63.40625 
Q 31.40625 63.40625 33.90625 62 
Q 36.40625 60.59375 38.046875 58.34375 
Q 39.703125 56.09375 40.546875 53.09375 
Q 41.40625 50.09375 41.84375 46.9375 
Q 42.296875 43.796875 42.34375 40.640625 
Q 42.40625 37.5 42.40625 34.90625 
Q 42.40625 30.90625 42.15625 25.953125 
Q 41.90625 21 40.546875 16.640625 
Q 39.203125 12.296875 36.203125 9.296875 
Q 33.203125 6.296875 27.796875 6.296875 
Q 22.40625 6.296875 19.40625 9.296875 
Q 16.40625 12.296875 15.046875 16.640625 
Q 13.703125 21 13.453125 25.953125 
Q 13.203125 30.90625 13.203125 34.90625 
z
M 4.203125 34.796875 
Q 4.203125 30.90625 4.390625 26.703125 
Q 4.59375 22.5 5.390625 18.5 
Q 6.203125 14.5 7.703125 10.953125 
Q 9.203125 7.40625 11.796875 4.703125 
Q 14.40625 2 18.34375 0.453125 
Q 22.296875 -1.09375 27.796875 -1.09375 
Q 33.40625 -1.09375 37.296875 0.453125 
Q 41.203125 2 43.796875 4.703125 
Q 46.40625 7.40625 47.90625 10.953125 
Q 49.40625 14.5 50.203125 18.5 
Q 51 22.5 51.203125 26.703125 
Q 51.40625 30.90625 51.40625 34.796875 
Q 51.40625 38.703125 51.203125 42.890625 
Q 51 47.09375 50.203125 51.09375 
Q 49.40625 55.09375 47.90625 58.6875 
Q 46.40625 62.296875 43.796875 65 
Q 41.203125 67.703125 37.25 69.296875 
Q 33.296875 70.90625 27.796875 70.90625 
Q 22.296875 70.90625 18.34375 69.296875 
Q 14.40625 67.703125 11.796875 65 
Q 9.203125 62.296875 7.703125 58.6875 
Q 6.203125 55.09375 5.390625 51.09375 
Q 4.59375 47.09375 4.390625 42.890625 
Q 4.203125 38.703125 4.203125 34.796875 
z
" id="HelveticaNeue-48"/>
      </defs>
      <g transform="translate(41.77625 251.1125)scale(0.08 -0.08)">
       <use xlink:href="#HelveticaNeue-48"/>
      </g>
     </g>
    </g>
    <g id="xtick_2">
     <g id="line2d_3">
      <path clip-path="url(#pc41fda91fb)" d="M 79.648 239.4 
L 79.648 16.6 
" style="fill:none;stroke:#000000;stroke-linecap:square;stroke-linejoin:miter;stroke-opacity:0.1;stroke-width:0.6;"/>
     </g>
     <g id="line2d_4">
      <g>
       <use style="stroke:#000000;stroke-width:0.6;" x="79.648" xlink:href="#ma7f4384f8b" y="239.4"/>
      </g>
     </g>
     <g id="text_2">
      <!-- 20 -->
      <defs>
       <path d="M 4.40625 45.796875 
L 12.90625 45.796875 
Q 12.796875 49 13.546875 52.140625 
Q 14.296875 55.296875 16 57.796875 
Q 17.703125 60.296875 20.34375 61.84375 
Q 23 63.40625 26.703125 63.40625 
Q 29.5 63.40625 32 62.5 
Q 34.5 61.59375 36.34375 59.890625 
Q 38.203125 58.203125 39.296875 55.84375 
Q 40.40625 53.5 40.40625 50.59375 
Q 40.40625 46.90625 39.25 44.09375 
Q 38.09375 41.296875 35.84375 38.890625 
Q 33.59375 36.5 30.1875 34.140625 
Q 26.796875 31.796875 22.296875 29 
Q 18.59375 26.796875 15.1875 24.296875 
Q 11.796875 21.796875 9.09375 18.5 
Q 6.40625 15.203125 4.65625 10.75 
Q 2.90625 6.296875 2.40625 0 
L 48.703125 0 
L 48.703125 7.5 
L 12.296875 7.5 
Q 12.90625 10.796875 14.84375 13.34375 
Q 16.796875 15.90625 19.546875 18.09375 
Q 22.296875 20.296875 25.59375 22.25 
Q 28.90625 24.203125 32.203125 26.203125 
Q 35.5 28.296875 38.59375 30.59375 
Q 41.703125 32.90625 44.09375 35.75 
Q 46.5 38.59375 47.953125 42.1875 
Q 49.40625 45.796875 49.40625 50.5 
Q 49.40625 55.5 47.65625 59.296875 
Q 45.90625 63.09375 42.90625 65.640625 
Q 39.90625 68.203125 35.84375 69.546875 
Q 31.796875 70.90625 27.203125 70.90625 
Q 21.59375 70.90625 17.1875 69 
Q 12.796875 67.09375 9.84375 63.75 
Q 6.90625 60.40625 5.5 55.796875 
Q 4.09375 51.203125 4.40625 45.796875 
z
" id="HelveticaNeue-50"/>
      </defs>
      <g transform="translate(75.2005 251.1125)scale(0.08 -0.08)">
       <use xlink:href="#HelveticaNeue-50"/>
       <use x="55.599991" xlink:href="#HelveticaNeue-48"/>
      </g>
     </g>
    </g>
    <g id="xtick_3">
     <g id="line2d_5">
      <path clip-path="url(#pc41fda91fb)" d="M 115.296 239.4 
L 115.296 16.6 
" style="fill:none;stroke:#000000;stroke-linecap:square;stroke-linejoin:miter;stroke-opacity:0.1;stroke-width:0.6;"/>
     </g>
     <g id="line2d_6">
      <g>
       <use style="stroke:#000000;stroke-width:0.6;" x="115.296" xlink:href="#ma7f4384f8b" y="239.4"/>
      </g>
     </g>
     <g id="text_3">
      <!-- 40 -->
      <defs>
       <path d="M 33.90625 24.09375 
L 10.09375 24.09375 
L 33.703125 58.796875 
L 33.90625 58.796875 
z
M 41.90625 24.09375 
L 41.90625 70.90625 
L 35.09375 70.90625 
L 2.796875 24.796875 
L 2.796875 16.59375 
L 33.90625 16.59375 
L 33.90625 0 
L 41.90625 0 
L 41.90625 16.59375 
L 51.5 16.59375 
L 51.5 24.09375 
z
" id="HelveticaNeue-52"/>
      </defs>
      <g transform="translate(110.8485 251.1125)scale(0.08 -0.08)">
       <use xlink:href="#HelveticaNeue-52"/>
       <use x="55.599991" xlink:href="#HelveticaNeue-48"/>
      </g>
     </g>
    </g>
    <g id="xtick_4">
     <g id="line2d_7">
      <path clip-path="url(#pc41fda91fb)" d="M 150.944 239.4 
L 150.944 16.6 
" style="fill:none;stroke:#000000;stroke-linecap:square;stroke-linejoin:miter;stroke-opacity:0.1;stroke-width:0.6;"/>
     </g>
     <g id="line2d_8">
      <g>
       <use style="stroke:#000000;stroke-width:0.6;" x="150.944" xlink:href="#ma7f4384f8b" y="239.4"/>
      </g>
     </g>
     <g id="text_4">
      <!-- 60 -->
      <defs>
       <path d="M 41.40625 52.796875 
L 49.90625 52.796875 
Q 49.09375 61.59375 43.890625 66.25 
Q 38.703125 70.90625 29.90625 70.90625 
Q 22.296875 70.90625 17.296875 67.703125 
Q 12.296875 64.5 9.296875 59.203125 
Q 6.296875 53.90625 5.046875 47.046875 
Q 3.796875 40.203125 3.796875 32.90625 
Q 3.796875 27.296875 4.640625 21.296875 
Q 5.5 15.296875 8.09375 10.296875 
Q 10.703125 5.296875 15.5 2.09375 
Q 20.296875 -1.09375 28.203125 -1.09375 
Q 34.90625 -1.09375 39.453125 1.15625 
Q 44 3.40625 46.75 6.84375 
Q 49.5 10.296875 50.703125 14.5 
Q 51.90625 18.703125 51.90625 22.59375 
Q 51.90625 27.5 50.40625 31.703125 
Q 48.90625 35.90625 46.15625 39 
Q 43.40625 42.09375 39.34375 43.84375 
Q 35.296875 45.59375 30.203125 45.59375 
Q 24.40625 45.59375 19.953125 43.390625 
Q 15.5 41.203125 12.5 36.296875 
L 12.296875 36.5 
Q 12.40625 40.59375 13.09375 45.296875 
Q 13.796875 50 15.640625 54.046875 
Q 17.5 58.09375 20.796875 60.75 
Q 24.09375 63.40625 29.5 63.40625 
Q 34.59375 63.40625 37.6875 60.5 
Q 40.796875 57.59375 41.40625 52.796875 
z
M 28.59375 38.09375 
Q 32.203125 38.09375 34.890625 36.796875 
Q 37.59375 35.5 39.390625 33.34375 
Q 41.203125 31.203125 42.046875 28.25 
Q 42.90625 25.296875 42.90625 22 
Q 42.90625 18.90625 41.953125 16.046875 
Q 41 13.203125 39.203125 11 
Q 37.40625 8.796875 34.75 7.546875 
Q 32.09375 6.296875 28.59375 6.296875 
Q 25.09375 6.296875 22.34375 7.546875 
Q 19.59375 8.796875 17.75 10.890625 
Q 15.90625 13 14.90625 15.890625 
Q 13.90625 18.796875 13.90625 22.09375 
Q 13.90625 25.40625 14.84375 28.34375 
Q 15.796875 31.296875 17.6875 33.4375 
Q 19.59375 35.59375 22.296875 36.84375 
Q 25 38.09375 28.59375 38.09375 
z
" id="HelveticaNeue-54"/>
      </defs>
      <g transform="translate(146.4965 251.1125)scale(0.08 -0.08)">
       <use xlink:href="#HelveticaNeue-54"/>
       <use x="55.599991" xlink:href="#HelveticaNeue-48"/>
      </g>
     </g>
    </g>
    <g id="xtick_5">
     <g id="line2d_9">
      <path clip-path="url(#pc41fda91fb)" d="M 186.592 239.4 
L 186.592 16.6 
" style="fill:none;stroke:#000000;stroke-linecap:square;stroke-linejoin:miter;stroke-opacity:0.1;stroke-width:0.6;"/>
     </g>
     <g id="line2d_10">
      <g>
       <use style="stroke:#000000;stroke-width:0.6;" x="186.592" xlink:href="#ma7f4384f8b" y="239.4"/>
      </g>
     </g>
     <g id="text_5">
      <!-- 80 -->
      <defs>
       <path d="M 15.5 52.5 
Q 15.5 55.203125 16.5 57.203125 
Q 17.5 59.203125 19.140625 60.59375 
Q 20.796875 62 23.09375 62.703125 
Q 25.40625 63.40625 27.90625 63.40625 
Q 33.09375 63.40625 36.4375 60.65625 
Q 39.796875 57.90625 39.796875 52.5 
Q 39.796875 47.09375 36.5 44.09375 
Q 33.203125 41.09375 28.09375 41.09375 
Q 25.5 41.09375 23.203125 41.796875 
Q 20.90625 42.5 19.203125 43.890625 
Q 17.5 45.296875 16.5 47.4375 
Q 15.5 49.59375 15.5 52.5 
z
M 6.5 52.796875 
Q 6.5 48 9.203125 43.953125 
Q 11.90625 39.90625 16.40625 38.09375 
Q 10.40625 36 7.203125 31.34375 
Q 4 26.703125 4 20.40625 
Q 4 15 5.84375 10.953125 
Q 7.703125 6.90625 10.953125 4.203125 
Q 14.203125 1.5 18.59375 0.203125 
Q 23 -1.09375 28.09375 -1.09375 
Q 33 -1.09375 37.296875 0.296875 
Q 41.59375 1.703125 44.75 4.453125 
Q 47.90625 7.203125 49.75 11.203125 
Q 51.59375 15.203125 51.59375 20.40625 
Q 51.59375 27 48.5 31.546875 
Q 45.40625 36.09375 39 38.09375 
Q 43.5 40.09375 46.140625 44.046875 
Q 48.796875 48 48.796875 52.796875 
Q 48.796875 56.203125 47.59375 59.453125 
Q 46.40625 62.703125 43.84375 65.25 
Q 41.296875 67.796875 37.1875 69.34375 
Q 33.09375 70.90625 27.296875 70.90625 
Q 23.203125 70.90625 19.453125 69.703125 
Q 15.703125 68.5 12.796875 66.203125 
Q 9.90625 63.90625 8.203125 60.546875 
Q 6.5 57.203125 6.5 52.796875 
z
M 13 20 
Q 13 23.09375 14.140625 25.59375 
Q 15.296875 28.09375 17.34375 29.890625 
Q 19.40625 31.703125 22.15625 32.640625 
Q 24.90625 33.59375 28 33.59375 
Q 31 33.59375 33.640625 32.546875 
Q 36.296875 31.5 38.296875 29.703125 
Q 40.296875 27.90625 41.4375 25.453125 
Q 42.59375 23 42.59375 20.09375 
Q 42.59375 17.09375 41.546875 14.59375 
Q 40.5 12.09375 38.546875 10.25 
Q 36.59375 8.40625 33.9375 7.34375 
Q 31.296875 6.296875 28.09375 6.296875 
Q 21.5 6.296875 17.25 9.9375 
Q 13 13.59375 13 20 
z
" id="HelveticaNeue-56"/>
      </defs>
      <g transform="translate(182.1445 251.1125)scale(0.08 -0.08)">
       <use xlink:href="#HelveticaNeue-56"/>
       <use x="55.599991" xlink:href="#HelveticaNeue-48"/>
      </g>
     </g>
    </g>
    <g id="xtick_6">
     <g id="line2d_11">
      <path clip-path="url(#pc41fda91fb)" d="M 222.24 239.4 
L 222.24 16.6 
" style="fill:none;stroke:#000000;stroke-linecap:square;stroke-linejoin:miter;stroke-opacity:0.1;stroke-width:0.6;"/>
     </g>
     <g id="line2d_12">
      <g>
       <use style="stroke:#000000;stroke-width:0.6;" x="222.24" xlink:href="#ma7f4384f8b" y="239.4"/>
      </g>
     </g>
     <g id="text_6">
      <!-- 100 -->
      <defs>
       <path d="M 35.59375 0 
L 35.59375 70.90625 
L 29.09375 70.90625 
Q 28.40625 66.90625 26.5 64.296875 
Q 24.59375 61.703125 21.84375 60.203125 
Q 19.09375 58.703125 15.6875 58.140625 
Q 12.296875 57.59375 8.703125 57.59375 
L 8.703125 50.796875 
L 27.09375 50.796875 
L 27.09375 0 
z
" id="HelveticaNeue-49"/>
      </defs>
      <g transform="translate(215.56875 251.1125)scale(0.08 -0.08)">
       <use xlink:href="#HelveticaNeue-49"/>
       <use x="55.599991" xlink:href="#HelveticaNeue-48"/>
       <use x="111.199982" xlink:href="#HelveticaNeue-48"/>
      </g>
     </g>
    </g>
    <g id="xtick_7">
     <g id="line2d_13">
      <path clip-path="url(#pc41fda91fb)" d="M 257.888 239.4 
L 257.888 16.6 
" style="fill:none;stroke:#000000;stroke-linecap:square;stroke-linejoin:miter;stroke-opacity:0.1;stroke-width:0.6;"/>
     </g>
     <g id="line2d_14">
      <g>
       <use style="stroke:#000000;stroke-width:0.6;" x="257.888" xlink:href="#ma7f4384f8b" y="239.4"/>
      </g>
     </g>
     <g id="text_7">
      <!-- 120 -->
      <g transform="translate(251.21675 251.1125)scale(0.08 -0.08)">
       <use xlink:href="#HelveticaNeue-49"/>
       <use x="55.599991" xlink:href="#HelveticaNeue-50"/>
       <use x="111.199982" xlink:href="#HelveticaNeue-48"/>
      </g>
     </g>
    </g>
    <g id="xtick_8">
     <g id="line2d_15">
      <defs>
       <path d="M 0 0 
L 0 2 
" id="m34fe9eed50" style="stroke:#000000;stroke-width:0.48;"/>
      </defs>
      <g>
       <use style="stroke:#000000;stroke-width:0.48;" x="52.912" xlink:href="#m34fe9eed50" y="239.4"/>
      </g>
     </g>
    </g>
    <g id="xtick_9">
     <g id="line2d_16">
      <g>
       <use style="stroke:#000000;stroke-width:0.48;" x="61.824" xlink:href="#m34fe9eed50" y="239.4"/>
      </g>
     </g>
    </g>
    <g id="xtick_10">
     <g id="line2d_17">
      <g>
       <use style="stroke:#000000;stroke-width:0.48;" x="70.736" xlink:href="#m34fe9eed50" y="239.4"/>
      </g>
     </g>
    </g>
    <g id="xtick_11">
     <g id="line2d_18">
      <g>
       <use style="stroke:#000000;stroke-width:0.48;" x="88.56" xlink:href="#m34fe9eed50" y="239.4"/>
      </g>
     </g>
    </g>
    <g id="xtick_12">
     <g id="line2d_19">
      <g>
       <use style="stroke:#000000;stroke-width:0.48;" x="97.472" xlink:href="#m34fe9eed50" y="239.4"/>
      </g>
     </g>
    </g>
    <g id="xtick_13">
     <g id="line2d_20">
      <g>
       <use style="stroke:#000000;stroke-width:0.48;" x="106.384" xlink:href="#m34fe9eed50" y="239.4"/>
      </g>
     </g>
    </g>
    <g id="xtick_14">
     <g id="line2d_21">
      <g>
       <use style="stroke:#000000;stroke-width:0.48;" x="124.208" xlink:href="#m34fe9eed50" y="239.4"/>
      </g>
     </g>
    </g>
    <g id="xtick_15">
     <g id="line2d_22">
      <g>
       <use style="stroke:#000000;stroke-width:0.48;" x="133.12" xlink:href="#m34fe9eed50" y="239.4"/>
      </g>
     </g>
    </g>
    <g id="xtick_16">
     <g id="line2d_23">
      <g>
       <use style="stroke:#000000;stroke-width:0.48;" x="142.032" xlink:href="#m34fe9eed50" y="239.4"/>
      </g>
     </g>
    </g>
    <g id="xtick_17">
     <g id="line2d_24">
      <g>
       <use style="stroke:#000000;stroke-width:0.48;" x="159.856" xlink:href="#m34fe9eed50" y="239.4"/>
      </g>
     </g>
    </g>
    <g id="xtick_18">
     <g id="line2d_25">
      <g>
       <use style="stroke:#000000;stroke-width:0.48;" x="168.768" xlink:href="#m34fe9eed50" y="239.4"/>
      </g>
     </g>
    </g>
    <g id="xtick_19">
     <g id="line2d_26">
      <g>
       <use style="stroke:#000000;stroke-width:0.48;" x="177.68" xlink:href="#m34fe9eed50" y="239.4"/>
      </g>
     </g>
    </g>
    <g id="xtick_20">
     <g id="line2d_27">
      <g>
       <use style="stroke:#000000;stroke-width:0.48;" x="195.504" xlink:href="#m34fe9eed50" y="239.4"/>
      </g>
     </g>
    </g>
    <g id="xtick_21">
     <g id="line2d_28">
      <g>
       <use style="stroke:#000000;stroke-width:0.48;" x="204.416" xlink:href="#m34fe9eed50" y="239.4"/>
      </g>
     </g>
    </g>
    <g id="xtick_22">
     <g id="line2d_29">
      <g>
       <use style="stroke:#000000;stroke-width:0.48;" x="213.328" xlink:href="#m34fe9eed50" y="239.4"/>
      </g>
     </g>
    </g>
    <g id="xtick_23">
     <g id="line2d_30">
      <g>
       <use style="stroke:#000000;stroke-width:0.48;" x="231.152" xlink:href="#m34fe9eed50" y="239.4"/>
      </g>
     </g>
    </g>
    <g id="xtick_24">
     <g id="line2d_31">
      <g>
       <use style="stroke:#000000;stroke-width:0.48;" x="240.064" xlink:href="#m34fe9eed50" y="239.4"/>
      </g>
     </g>
    </g>
    <g id="xtick_25">
     <g id="line2d_32">
      <g>
       <use style="stroke:#000000;stroke-width:0.48;" x="248.976" xlink:href="#m34fe9eed50" y="239.4"/>
      </g>
     </g>
    </g>
    <g id="xtick_26">
     <g id="line2d_33">
      <g>
       <use style="stroke:#000000;stroke-width:0.48;" x="266.8" xlink:href="#m34fe9eed50" y="239.4"/>
      </g>
     </g>
    </g>
    <g id="text_8">
     <!-- coordinate -->
     <defs>
      <path d="M 41.5 35.09375 
L 50.296875 35.09375 
Q 49.796875 39.703125 47.890625 43.046875 
Q 46 46.40625 43.046875 48.59375 
Q 40.09375 50.796875 36.25 51.84375 
Q 32.40625 52.90625 28 52.90625 
Q 21.90625 52.90625 17.296875 50.75 
Q 12.703125 48.59375 9.640625 44.84375 
Q 6.59375 41.09375 5.09375 36.046875 
Q 3.59375 31 3.59375 25.203125 
Q 3.59375 19.40625 5.140625 14.546875 
Q 6.703125 9.703125 9.75 6.203125 
Q 12.796875 2.703125 17.34375 0.796875 
Q 21.90625 -1.09375 27.796875 -1.09375 
Q 37.703125 -1.09375 43.453125 4.09375 
Q 49.203125 9.296875 50.59375 18.90625 
L 41.90625 18.90625 
Q 41.09375 12.90625 37.546875 9.59375 
Q 34 6.296875 27.703125 6.296875 
Q 23.703125 6.296875 20.796875 7.890625 
Q 17.90625 9.5 16.09375 12.140625 
Q 14.296875 14.796875 13.4375 18.1875 
Q 12.59375 21.59375 12.59375 25.203125 
Q 12.59375 29.09375 13.390625 32.75 
Q 14.203125 36.40625 16.046875 39.203125 
Q 17.90625 42 21 43.703125 
Q 24.09375 45.40625 28.703125 45.40625 
Q 34.09375 45.40625 37.296875 42.703125 
Q 40.5 40 41.5 35.09375 
z
" id="HelveticaNeue-99"/>
      <path d="M 12.59375 25.796875 
Q 12.59375 30.5 13.84375 34.140625 
Q 15.09375 37.796875 17.296875 40.296875 
Q 19.5 42.796875 22.453125 44.09375 
Q 25.40625 45.40625 28.703125 45.40625 
Q 32 45.40625 34.953125 44.09375 
Q 37.90625 42.796875 40.09375 40.296875 
Q 42.296875 37.796875 43.546875 34.140625 
Q 44.796875 30.5 44.796875 25.796875 
Q 44.796875 21.09375 43.546875 17.4375 
Q 42.296875 13.796875 40.09375 11.34375 
Q 37.90625 8.90625 34.953125 7.59375 
Q 32 6.296875 28.703125 6.296875 
Q 25.40625 6.296875 22.453125 7.59375 
Q 19.5 8.90625 17.296875 11.34375 
Q 15.09375 13.796875 13.84375 17.4375 
Q 12.59375 21.09375 12.59375 25.796875 
z
M 3.59375 25.796875 
Q 3.59375 20.09375 5.1875 15.1875 
Q 6.796875 10.296875 10 6.640625 
Q 13.203125 3 17.890625 0.953125 
Q 22.59375 -1.09375 28.703125 -1.09375 
Q 34.90625 -1.09375 39.546875 0.953125 
Q 44.203125 3 47.390625 6.640625 
Q 50.59375 10.296875 52.1875 15.1875 
Q 53.796875 20.09375 53.796875 25.796875 
Q 53.796875 31.5 52.1875 36.453125 
Q 50.59375 41.40625 47.390625 45.046875 
Q 44.203125 48.703125 39.546875 50.796875 
Q 34.90625 52.90625 28.703125 52.90625 
Q 22.59375 52.90625 17.890625 50.796875 
Q 13.203125 48.703125 10 45.046875 
Q 6.796875 41.40625 5.1875 36.453125 
Q 3.59375 31.5 3.59375 25.796875 
z
" id="HelveticaNeue-111"/>
      <path d="M 6.09375 51.703125 
L 6.09375 0 
L 14.59375 0 
L 14.59375 23 
Q 14.59375 28 15.59375 31.84375 
Q 16.59375 35.703125 18.796875 38.390625 
Q 21 41.09375 24.59375 42.5 
Q 28.203125 43.90625 33.296875 43.90625 
L 33.296875 52.90625 
Q 26.40625 53.09375 21.90625 50.09375 
Q 17.40625 47.09375 14.296875 40.796875 
L 14.09375 40.796875 
L 14.09375 51.703125 
z
" id="HelveticaNeue-114"/>
      <path d="M 12.59375 25.40625 
Q 12.59375 29.203125 13.390625 32.796875 
Q 14.203125 36.40625 16 39.203125 
Q 17.796875 42 20.796875 43.703125 
Q 23.796875 45.40625 28.09375 45.40625 
Q 32.5 45.40625 35.59375 43.75 
Q 38.703125 42.09375 40.640625 39.390625 
Q 42.59375 36.703125 43.5 33.140625 
Q 44.40625 29.59375 44.40625 25.796875 
Q 44.40625 22.203125 43.546875 18.703125 
Q 42.703125 15.203125 40.796875 12.453125 
Q 38.90625 9.703125 35.90625 8 
Q 32.90625 6.296875 28.59375 6.296875 
Q 24.5 6.296875 21.453125 7.890625 
Q 18.40625 9.5 16.453125 12.203125 
Q 14.5 14.90625 13.546875 18.34375 
Q 12.59375 21.796875 12.59375 25.40625 
z
M 52.59375 0 
L 52.59375 71.40625 
L 44.09375 71.40625 
L 44.09375 44.796875 
L 43.90625 44.796875 
Q 42.5 47.09375 40.453125 48.640625 
Q 38.40625 50.203125 36.09375 51.140625 
Q 33.796875 52.09375 31.5 52.5 
Q 29.203125 52.90625 27.203125 52.90625 
Q 21.296875 52.90625 16.84375 50.75 
Q 12.40625 48.59375 9.453125 44.9375 
Q 6.5 41.296875 5.046875 36.390625 
Q 3.59375 31.5 3.59375 26 
Q 3.59375 20.5 5.09375 15.59375 
Q 6.59375 10.703125 9.546875 7 
Q 12.5 3.296875 16.953125 1.09375 
Q 21.40625 -1.09375 27.40625 -1.09375 
Q 32.796875 -1.09375 37.296875 0.796875 
Q 41.796875 2.703125 43.90625 7 
L 44.09375 7 
L 44.09375 0 
z
" id="HelveticaNeue-100"/>
      <path d="M 15.40625 61 
L 15.40625 71.40625 
L 6.90625 71.40625 
L 6.90625 61 
z
M 6.90625 51.703125 
L 6.90625 0 
L 15.40625 0 
L 15.40625 51.703125 
z
" id="HelveticaNeue-105"/>
      <path d="M 6.40625 51.703125 
L 6.40625 0 
L 14.90625 0 
L 14.90625 29.203125 
Q 14.90625 32.703125 15.84375 35.640625 
Q 16.796875 38.59375 18.6875 40.796875 
Q 20.59375 43 23.4375 44.203125 
Q 26.296875 45.40625 30.203125 45.40625 
Q 35.09375 45.40625 37.890625 42.59375 
Q 40.703125 39.796875 40.703125 35 
L 40.703125 0 
L 49.203125 0 
L 49.203125 34 
Q 49.203125 38.203125 48.34375 41.640625 
Q 47.5 45.09375 45.390625 47.59375 
Q 43.296875 50.09375 39.890625 51.5 
Q 36.5 52.90625 31.40625 52.90625 
Q 19.90625 52.90625 14.59375 43.5 
L 14.40625 43.5 
L 14.40625 51.703125 
z
" id="HelveticaNeue-110"/>
      <path d="M 52.203125 0.203125 
Q 50 -1.09375 46.09375 -1.09375 
Q 42.796875 -1.09375 40.84375 0.75 
Q 38.90625 2.59375 38.90625 6.796875 
Q 35.40625 2.59375 30.75 0.75 
Q 26.09375 -1.09375 20.703125 -1.09375 
Q 17.203125 -1.09375 14.046875 -0.296875 
Q 10.90625 0.5 8.59375 2.203125 
Q 6.296875 3.90625 4.9375 6.65625 
Q 3.59375 9.40625 3.59375 13.296875 
Q 3.59375 17.703125 5.09375 20.5 
Q 6.59375 23.296875 9.046875 25.046875 
Q 11.5 26.796875 14.640625 27.6875 
Q 17.796875 28.59375 21.09375 29.203125 
Q 24.59375 29.90625 27.75 30.25 
Q 30.90625 30.59375 33.296875 31.25 
Q 35.703125 31.90625 37.09375 33.15625 
Q 38.5 34.40625 38.5 36.796875 
Q 38.5 39.59375 37.453125 41.296875 
Q 36.40625 43 34.75 43.890625 
Q 33.09375 44.796875 31.046875 45.09375 
Q 29 45.40625 27 45.40625 
Q 21.59375 45.40625 18 43.34375 
Q 14.40625 41.296875 14.09375 35.59375 
L 5.59375 35.59375 
Q 5.796875 40.40625 7.59375 43.703125 
Q 9.40625 47 12.40625 49.046875 
Q 15.40625 51.09375 19.25 52 
Q 23.09375 52.90625 27.5 52.90625 
Q 31 52.90625 34.453125 52.40625 
Q 37.90625 51.90625 40.703125 50.34375 
Q 43.5 48.796875 45.203125 46 
Q 46.90625 43.203125 46.90625 38.703125 
L 46.90625 12.09375 
Q 46.90625 9.09375 47.25 7.6875 
Q 47.59375 6.296875 49.59375 6.296875 
Q 50.703125 6.296875 52.203125 6.796875 
z
M 38.40625 26.703125 
Q 36.796875 25.5 34.1875 24.953125 
Q 31.59375 24.40625 28.75 24.046875 
Q 25.90625 23.703125 23 23.25 
Q 20.09375 22.796875 17.796875 21.796875 
Q 15.5 20.796875 14.046875 18.9375 
Q 12.59375 17.09375 12.59375 13.90625 
Q 12.59375 11.796875 13.4375 10.34375 
Q 14.296875 8.90625 15.640625 8 
Q 17 7.09375 18.796875 6.6875 
Q 20.59375 6.296875 22.59375 6.296875 
Q 26.796875 6.296875 29.796875 7.4375 
Q 32.796875 8.59375 34.6875 10.34375 
Q 36.59375 12.09375 37.5 14.140625 
Q 38.40625 16.203125 38.40625 18 
z
" id="HelveticaNeue-97"/>
      <path d="M 18.203125 51.703125 
L 18.203125 67.203125 
L 9.703125 67.203125 
L 9.703125 51.703125 
L 0.90625 51.703125 
L 0.90625 44.203125 
L 9.703125 44.203125 
L 9.703125 11.296875 
Q 9.703125 7.703125 10.390625 5.5 
Q 11.09375 3.296875 12.546875 2.09375 
Q 14 0.90625 16.34375 0.453125 
Q 18.703125 0 22 0 
L 28.5 0 
L 28.5 7.5 
L 24.59375 7.5 
Q 22.59375 7.5 21.34375 7.640625 
Q 20.09375 7.796875 19.390625 8.296875 
Q 18.703125 8.796875 18.453125 9.6875 
Q 18.203125 10.59375 18.203125 12.09375 
L 18.203125 44.203125 
L 28.5 44.203125 
L 28.5 51.703125 
z
" id="HelveticaNeue-116"/>
      <path d="M 42.296875 30.796875 
L 12.59375 30.796875 
Q 12.796875 33.796875 13.890625 36.4375 
Q 15 39.09375 16.890625 41.09375 
Q 18.796875 43.09375 21.4375 44.25 
Q 24.09375 45.40625 27.40625 45.40625 
Q 30.59375 45.40625 33.25 44.25 
Q 35.90625 43.09375 37.84375 41.140625 
Q 39.796875 39.203125 40.9375 36.5 
Q 42.09375 33.796875 42.296875 30.796875 
z
M 50.5 16.40625 
L 42.09375 16.40625 
Q 41 11.296875 37.546875 8.796875 
Q 34.09375 6.296875 28.703125 6.296875 
Q 24.5 6.296875 21.390625 7.6875 
Q 18.296875 9.09375 16.296875 11.4375 
Q 14.296875 13.796875 13.390625 16.84375 
Q 12.5 19.90625 12.59375 23.296875 
L 51.296875 23.296875 
Q 51.5 28 50.453125 33.203125 
Q 49.40625 38.40625 46.65625 42.796875 
Q 43.90625 47.203125 39.34375 50.046875 
Q 34.796875 52.90625 27.90625 52.90625 
Q 22.59375 52.90625 18.140625 50.90625 
Q 13.703125 48.90625 10.453125 45.296875 
Q 7.203125 41.703125 5.390625 36.796875 
Q 3.59375 31.90625 3.59375 26 
Q 3.796875 20.09375 5.34375 15.09375 
Q 6.90625 10.09375 10 6.5 
Q 13.09375 2.90625 17.640625 0.90625 
Q 22.203125 -1.09375 28.40625 -1.09375 
Q 37.203125 -1.09375 43 3.296875 
Q 48.796875 7.703125 50.5 16.40625 
z
" id="HelveticaNeue-101"/>
     </defs>
     <g transform="translate(136.288125 261.40125)scale(0.08 -0.08)">
      <use xlink:href="#HelveticaNeue-99"/>
      <use x="53.699997" xlink:href="#HelveticaNeue-111"/>
      <use x="111.099991" xlink:href="#HelveticaNeue-111"/>
      <use x="168.499985" xlink:href="#HelveticaNeue-114"/>
      <use x="201.784348" xlink:href="#HelveticaNeue-100"/>
      <use x="261.084335" xlink:href="#HelveticaNeue-105"/>
      <use x="283.284332" xlink:href="#HelveticaNeue-110"/>
      <use x="338.884323" xlink:href="#HelveticaNeue-97"/>
      <use x="392.58432" xlink:href="#HelveticaNeue-116"/>
      <use x="424.084305" xlink:href="#HelveticaNeue-101"/>
     </g>
    </g>
   </g>
   <g id="matplotlib.axis_2">
    <g id="ytick_1">
     <g id="line2d_34">
      <path clip-path="url(#pc41fda91fb)" d="M 44 231.569393 
L 266.8 231.569393 
" style="fill:none;stroke:#000000;stroke-linecap:square;stroke-linejoin:miter;stroke-opacity:0.1;stroke-width:0.6;"/>
     </g>
     <g id="line2d_35">
      <defs>
       <path d="M 0 0 
L -4 0 
" id="m23777e9e62" style="stroke:#000000;stroke-width:0.6;"/>
      </defs>
      <g>
       <use style="stroke:#000000;stroke-width:0.6;" x="44" xlink:href="#m23777e9e62" y="231.569393"/>
      </g>
     </g>
     <g id="text_9">
      <!-- −0.15 -->
      <defs>
       <path d="M 4.796875 28.703125 
L 4.796875 21.90625 
L 55.203125 21.90625 
L 55.203125 28.703125 
z
" id="HelveticaNeue-8722"/>
       <path d="M 8.296875 11.09375 
L 8.296875 0 
L 19.40625 0 
L 19.40625 11.09375 
z
" id="HelveticaNeue-46"/>
       <path d="M 47 62.203125 
L 47 69.703125 
L 12 69.703125 
L 5.40625 32.90625 
L 12.703125 32.5 
Q 15.203125 35.5 18.453125 37.34375 
Q 21.703125 39.203125 25.90625 39.203125 
Q 29.5 39.203125 32.453125 38 
Q 35.40625 36.796875 37.5 34.640625 
Q 39.59375 32.5 40.75 29.546875 
Q 41.90625 26.59375 41.90625 23.09375 
Q 41.90625 18.90625 40.703125 15.75 
Q 39.5 12.59375 37.453125 10.5 
Q 35.40625 8.40625 32.65625 7.34375 
Q 29.90625 6.296875 26.90625 6.296875 
Q 23.703125 6.296875 21.046875 7.25 
Q 18.40625 8.203125 16.453125 9.953125 
Q 14.5 11.703125 13.34375 14.046875 
Q 12.203125 16.40625 12 19.09375 
L 3.5 19.09375 
Q 3.59375 14.296875 5.390625 10.5 
Q 7.203125 6.703125 10.296875 4.140625 
Q 13.40625 1.59375 17.453125 0.25 
Q 21.5 -1.09375 26.09375 -1.09375 
Q 32.296875 -1.09375 36.9375 0.84375 
Q 41.59375 2.796875 44.6875 6.09375 
Q 47.796875 9.40625 49.34375 13.65625 
Q 50.90625 17.90625 50.90625 22.40625 
Q 50.90625 28.5 49.09375 33.046875 
Q 47.296875 37.59375 44.1875 40.640625 
Q 41.09375 43.703125 36.890625 45.203125 
Q 32.703125 46.703125 28 46.703125 
Q 24.40625 46.703125 20.75 45.453125 
Q 17.09375 44.203125 14.796875 41.59375 
L 14.59375 41.796875 
L 18.40625 62.203125 
z
" id="HelveticaNeue-53"/>
      </defs>
      <g transform="translate(17.63375 234.425643)scale(0.08 -0.08)">
       <use xlink:href="#HelveticaNeue-8722"/>
       <use x="59.999985" xlink:href="#HelveticaNeue-48"/>
       <use x="115.599976" xlink:href="#HelveticaNeue-46"/>
       <use x="143.399963" xlink:href="#HelveticaNeue-49"/>
       <use x="198.999954" xlink:href="#HelveticaNeue-53"/>
      </g>
     </g>
    </g>
    <g id="ytick_2">
     <g id="line2d_36">
      <path clip-path="url(#pc41fda91fb)" d="M 44 199.29304 
L 266.8 199.29304 
" style="fill:none;stroke:#000000;stroke-linecap:square;stroke-linejoin:miter;stroke-opacity:0.1;stroke-width:0.6;"/>
     </g>
     <g id="line2d_37">
      <g>
       <use style="stroke:#000000;stroke-width:0.6;" x="44" xlink:href="#m23777e9e62" y="199.29304"/>
      </g>
     </g>
     <g id="text_10">
      <!-- −0.1 -->
      <g transform="translate(22.08125 202.14929)scale(0.08 -0.08)">
       <use xlink:href="#HelveticaNeue-8722"/>
       <use x="59.999985" xlink:href="#HelveticaNeue-48"/>
       <use x="115.599976" xlink:href="#HelveticaNeue-46"/>
       <use x="143.399963" xlink:href="#HelveticaNeue-49"/>
      </g>
     </g>
    </g>
    <g id="ytick_3">
     <g id="line2d_38">
      <path clip-path="url(#pc41fda91fb)" d="M 44 167.016686 
L 266.8 167.016686 
" style="fill:none;stroke:#000000;stroke-linecap:square;stroke-linejoin:miter;stroke-opacity:0.1;stroke-width:0.6;"/>
     </g>
     <g id="line2d_39">
      <g>
       <use style="stroke:#000000;stroke-width:0.6;" x="44" xlink:href="#m23777e9e62" y="167.016686"/>
      </g>
     </g>
     <g id="text_11">
      <!-- −0.05 -->
      <g transform="translate(17.63375 169.872936)scale(0.08 -0.08)">
       <use xlink:href="#HelveticaNeue-8722"/>
       <use x="59.999985" xlink:href="#HelveticaNeue-48"/>
       <use x="115.599976" xlink:href="#HelveticaNeue-46"/>
       <use x="143.399963" xlink:href="#HelveticaNeue-48"/>
       <use x="198.999954" xlink:href="#HelveticaNeue-53"/>
      </g>
     </g>
    </g>
    <g id="ytick_4">
     <g id="line2d_40">
      <path clip-path="url(#pc41fda91fb)" d="M 44 134.740333 
L 266.8 134.740333 
" style="fill:none;stroke:#000000;stroke-linecap:square;stroke-linejoin:miter;stroke-opacity:0.1;stroke-width:0.6;"/>
     </g>
     <g id="line2d_41">
      <g>
       <use style="stroke:#000000;stroke-width:0.6;" x="44" xlink:href="#m23777e9e62" y="134.740333"/>
      </g>
     </g>
     <g id="text_12">
      <!-- 0 -->
      <g transform="translate(33.5525 137.596583)scale(0.08 -0.08)">
       <use xlink:href="#HelveticaNeue-48"/>
      </g>
     </g>
    </g>
    <g id="ytick_5">
     <g id="line2d_42">
      <path clip-path="url(#pc41fda91fb)" d="M 44 102.463979 
L 266.8 102.463979 
" style="fill:none;stroke:#000000;stroke-linecap:square;stroke-linejoin:miter;stroke-opacity:0.1;stroke-width:0.6;"/>
     </g>
     <g id="line2d_43">
      <g>
       <use style="stroke:#000000;stroke-width:0.6;" x="44" xlink:href="#m23777e9e62" y="102.463979"/>
      </g>
     </g>
     <g id="text_13">
      <!-- 0.05 -->
      <g transform="translate(22.43375 105.320229)scale(0.08 -0.08)">
       <use xlink:href="#HelveticaNeue-48"/>
       <use x="55.599991" xlink:href="#HelveticaNeue-46"/>
       <use x="83.399979" xlink:href="#HelveticaNeue-48"/>
       <use x="138.999969" xlink:href="#HelveticaNeue-53"/>
      </g>
     </g>
    </g>
    <g id="ytick_6">
     <g id="line2d_44">
      <path clip-path="url(#pc41fda91fb)" d="M 44 70.187626 
L 266.8 70.187626 
" style="fill:none;stroke:#000000;stroke-linecap:square;stroke-linejoin:miter;stroke-opacity:0.1;stroke-width:0.6;"/>
     </g>
     <g id="line2d_45">
      <g>
       <use style="stroke:#000000;stroke-width:0.6;" x="44" xlink:href="#m23777e9e62" y="70.187626"/>
      </g>
     </g>
     <g id="text_14">
      <!-- 0.1 -->
      <g transform="translate(26.88125 73.043876)scale(0.08 -0.08)">
       <use xlink:href="#HelveticaNeue-48"/>
       <use x="55.599991" xlink:href="#HelveticaNeue-46"/>
       <use x="83.399979" xlink:href="#HelveticaNeue-49"/>
      </g>
     </g>
    </g>
    <g id="ytick_7">
     <g id="line2d_46">
      <path clip-path="url(#pc41fda91fb)" d="M 44 37.911272 
L 266.8 37.911272 
" style="fill:none;stroke:#000000;stroke-linecap:square;stroke-linejoin:miter;stroke-opacity:0.1;stroke-width:0.6;"/>
     </g>
     <g id="line2d_47">
      <g>
       <use style="stroke:#000000;stroke-width:0.6;" x="44" xlink:href="#m23777e9e62" y="37.911272"/>
      </g>
     </g>
     <g id="text_15">
      <!-- 0.15 -->
      <g transform="translate(22.43375 40.767522)scale(0.08 -0.08)">
       <use xlink:href="#HelveticaNeue-48"/>
       <use x="55.599991" xlink:href="#HelveticaNeue-46"/>
       <use x="83.399979" xlink:href="#HelveticaNeue-49"/>
       <use x="138.999969" xlink:href="#HelveticaNeue-53"/>
      </g>
     </g>
    </g>
    <g id="ytick_8">
     <g id="line2d_48">
      <defs>
       <path d="M 0 0 
L -2 0 
" id="m229c474c95" style="stroke:#000000;stroke-width:0.48;"/>
      </defs>
      <g>
       <use style="stroke:#000000;stroke-width:0.48;" x="44" xlink:href="#m229c474c95" y="238.024664"/>
      </g>
     </g>
    </g>
    <g id="ytick_9">
     <g id="line2d_49">
      <g>
       <use style="stroke:#000000;stroke-width:0.48;" x="44" xlink:href="#m229c474c95" y="225.114123"/>
      </g>
     </g>
    </g>
    <g id="ytick_10">
     <g id="line2d_50">
      <g>
       <use style="stroke:#000000;stroke-width:0.48;" x="44" xlink:href="#m229c474c95" y="218.658852"/>
      </g>
     </g>
    </g>
    <g id="ytick_11">
     <g id="line2d_51">
      <g>
       <use style="stroke:#000000;stroke-width:0.48;" x="44" xlink:href="#m229c474c95" y="212.203581"/>
      </g>
     </g>
    </g>
    <g id="ytick_12">
     <g id="line2d_52">
      <g>
       <use style="stroke:#000000;stroke-width:0.48;" x="44" xlink:href="#m229c474c95" y="205.748311"/>
      </g>
     </g>
    </g>
    <g id="ytick_13">
     <g id="line2d_53">
      <g>
       <use style="stroke:#000000;stroke-width:0.48;" x="44" xlink:href="#m229c474c95" y="192.837769"/>
      </g>
     </g>
    </g>
    <g id="ytick_14">
     <g id="line2d_54">
      <g>
       <use style="stroke:#000000;stroke-width:0.48;" x="44" xlink:href="#m229c474c95" y="186.382498"/>
      </g>
     </g>
    </g>
    <g id="ytick_15">
     <g id="line2d_55">
      <g>
       <use style="stroke:#000000;stroke-width:0.48;" x="44" xlink:href="#m229c474c95" y="179.927228"/>
      </g>
     </g>
    </g>
    <g id="ytick_16">
     <g id="line2d_56">
      <g>
       <use style="stroke:#000000;stroke-width:0.48;" x="44" xlink:href="#m229c474c95" y="173.471957"/>
      </g>
     </g>
    </g>
    <g id="ytick_17">
     <g id="line2d_57">
      <g>
       <use style="stroke:#000000;stroke-width:0.48;" x="44" xlink:href="#m229c474c95" y="160.561416"/>
      </g>
     </g>
    </g>
    <g id="ytick_18">
     <g id="line2d_58">
      <g>
       <use style="stroke:#000000;stroke-width:0.48;" x="44" xlink:href="#m229c474c95" y="154.106145"/>
      </g>
     </g>
    </g>
    <g id="ytick_19">
     <g id="line2d_59">
      <g>
       <use style="stroke:#000000;stroke-width:0.48;" x="44" xlink:href="#m229c474c95" y="147.650874"/>
      </g>
     </g>
    </g>
    <g id="ytick_20">
     <g id="line2d_60">
      <g>
       <use style="stroke:#000000;stroke-width:0.48;" x="44" xlink:href="#m229c474c95" y="141.195603"/>
      </g>
     </g>
    </g>
    <g id="ytick_21">
     <g id="line2d_61">
      <g>
       <use style="stroke:#000000;stroke-width:0.48;" x="44" xlink:href="#m229c474c95" y="128.285062"/>
      </g>
     </g>
    </g>
    <g id="ytick_22">
     <g id="line2d_62">
      <g>
       <use style="stroke:#000000;stroke-width:0.48;" x="44" xlink:href="#m229c474c95" y="121.829791"/>
      </g>
     </g>
    </g>
    <g id="ytick_23">
     <g id="line2d_63">
      <g>
       <use style="stroke:#000000;stroke-width:0.48;" x="44" xlink:href="#m229c474c95" y="115.374521"/>
      </g>
     </g>
    </g>
    <g id="ytick_24">
     <g id="line2d_64">
      <g>
       <use style="stroke:#000000;stroke-width:0.48;" x="44" xlink:href="#m229c474c95" y="108.91925"/>
      </g>
     </g>
    </g>
    <g id="ytick_25">
     <g id="line2d_65">
      <g>
       <use style="stroke:#000000;stroke-width:0.48;" x="44" xlink:href="#m229c474c95" y="96.008708"/>
      </g>
     </g>
    </g>
    <g id="ytick_26">
     <g id="line2d_66">
      <g>
       <use style="stroke:#000000;stroke-width:0.48;" x="44" xlink:href="#m229c474c95" y="89.553438"/>
      </g>
     </g>
    </g>
    <g id="ytick_27">
     <g id="line2d_67">
      <g>
       <use style="stroke:#000000;stroke-width:0.48;" x="44" xlink:href="#m229c474c95" y="83.098167"/>
      </g>
     </g>
    </g>
    <g id="ytick_28">
     <g id="line2d_68">
      <g>
       <use style="stroke:#000000;stroke-width:0.48;" x="44" xlink:href="#m229c474c95" y="76.642896"/>
      </g>
     </g>
    </g>
    <g id="ytick_29">
     <g id="line2d_69">
      <g>
       <use style="stroke:#000000;stroke-width:0.48;" x="44" xlink:href="#m229c474c95" y="63.732355"/>
      </g>
     </g>
    </g>
    <g id="ytick_30">
     <g id="line2d_70">
      <g>
       <use style="stroke:#000000;stroke-width:0.48;" x="44" xlink:href="#m229c474c95" y="57.277084"/>
      </g>
     </g>
    </g>
    <g id="ytick_31">
     <g id="line2d_71">
      <g>
       <use style="stroke:#000000;stroke-width:0.48;" x="44" xlink:href="#m229c474c95" y="50.821813"/>
      </g>
     </g>
    </g>
    <g id="ytick_32">
     <g id="line2d_72">
      <g>
       <use style="stroke:#000000;stroke-width:0.48;" x="44" xlink:href="#m229c474c95" y="44.366543"/>
      </g>
     </g>
    </g>
    <g id="ytick_33">
     <g id="line2d_73">
      <g>
       <use style="stroke:#000000;stroke-width:0.48;" x="44" xlink:href="#m229c474c95" y="31.456001"/>
      </g>
     </g>
    </g>
    <g id="ytick_34">
     <g id="line2d_74">
      <g>
       <use style="stroke:#000000;stroke-width:0.48;" x="44" xlink:href="#m229c474c95" y="25.000731"/>
      </g>
     </g>
    </g>
    <g id="ytick_35">
     <g id="line2d_75">
      <g>
       <use style="stroke:#000000;stroke-width:0.48;" x="44" xlink:href="#m229c474c95" y="18.54546"/>
      </g>
     </g>
    </g>
    <g id="text_16">
     <!-- time -->
     <defs>
      <path d="M 6.40625 51.703125 
L 6.40625 0 
L 14.90625 0 
L 14.90625 32.203125 
Q 14.90625 33.703125 15.65625 35.953125 
Q 16.40625 38.203125 18.046875 40.296875 
Q 19.703125 42.40625 22.34375 43.90625 
Q 25 45.40625 28.703125 45.40625 
Q 31.59375 45.40625 33.4375 44.546875 
Q 35.296875 43.703125 36.390625 42.140625 
Q 37.5 40.59375 37.953125 38.5 
Q 38.40625 36.40625 38.40625 33.90625 
L 38.40625 0 
L 46.90625 0 
L 46.90625 32.203125 
Q 46.90625 38.203125 50.5 41.796875 
Q 54.09375 45.40625 60.40625 45.40625 
Q 63.5 45.40625 65.453125 44.5 
Q 67.40625 43.59375 68.5 42.046875 
Q 69.59375 40.5 70 38.390625 
Q 70.40625 36.296875 70.40625 33.90625 
L 70.40625 0 
L 78.90625 0 
L 78.90625 37.90625 
Q 78.90625 41.90625 77.65625 44.75 
Q 76.40625 47.59375 74.15625 49.390625 
Q 71.90625 51.203125 68.75 52.046875 
Q 65.59375 52.90625 61.703125 52.90625 
Q 56.59375 52.90625 52.34375 50.59375 
Q 48.09375 48.296875 45.5 44.09375 
Q 43.90625 48.90625 40 50.90625 
Q 36.09375 52.90625 31.296875 52.90625 
Q 20.40625 52.90625 14.59375 44.09375 
L 14.40625 44.09375 
L 14.40625 51.703125 
z
" id="HelveticaNeue-109"/>
     </defs>
     <g transform="translate(13.0575 135.708125)rotate(-90)scale(0.08 -0.08)">
      <use xlink:href="#HelveticaNeue-116"/>
      <use x="31.499985" xlink:href="#HelveticaNeue-105"/>
      <use x="53.699982" xlink:href="#HelveticaNeue-109"/>
      <use x="138.999969" xlink:href="#HelveticaNeue-101"/>
     </g>
    </g>
   </g>
   <g id="line2d_76">
    <path clip-path="url(#pc41fda91fb)" d="M 44 135.591387 
L 51.590381 159.027463 
L 56.501804 173.50222 
L 60.52024 184.708969 
L 64.092184 194.06406 
L 67.217635 201.703413 
L 70.343086 208.770552 
L 73.022044 214.330943 
L 75.701002 219.398819 
L 78.37996 223.945269 
L 80.612425 227.316859 
L 82.84489 230.294921 
L 85.077355 232.867653 
L 86.863327 234.627097 
L 88.649299 236.116112 
L 90.435271 237.330921 
L 92.221242 238.268445 
L 94.007214 238.926304 
L 95.793186 239.302831 
L 97.579158 239.39707 
L 99.36513 239.208783 
L 101.151102 238.738447 
L 102.937074 237.987255 
L 104.723046 236.957112 
L 106.509018 235.650631 
L 108.29499 234.071125 
L 110.080962 232.2226 
L 112.313427 229.540844 
L 114.545892 226.456746 
L 116.778357 222.982527 
L 119.010822 219.131954 
L 121.68978 214.036061 
L 124.368737 208.449337 
L 127.494188 201.353802 
L 130.619639 193.688767 
L 134.191583 184.307904 
L 138.21002 173.077032 
L 142.67495 159.926589 
L 148.479359 142.107446 
L 164.553106 92.289721 
L 169.018036 79.320688 
L 173.036473 68.301965 
L 176.608417 59.146293 
L 179.733868 51.704715 
L 182.859319 44.85548 
L 185.538277 39.496606 
L 188.217234 34.642644 
L 190.449699 31.003442 
L 192.682164 27.748577 
L 194.914629 24.890948 
L 197.147094 22.441876 
L 198.933066 20.783357 
L 200.719038 19.396763 
L 202.50501 18.285613 
L 204.290982 17.452723 
L 206.076954 16.900206 
L 207.862926 16.629463 
L 209.648898 16.641182 
L 211.43487 16.935332 
L 213.220842 17.511167 
L 215.006814 18.367227 
L 216.792786 19.501341 
L 218.578758 20.910632 
L 220.364729 22.591526 
L 222.150701 24.53976 
L 224.383166 27.343408 
L 226.615631 30.545897 
L 228.848096 34.134537 
L 231.527054 38.930498 
L 234.206012 44.234601 
L 236.88497 50.016587 
L 240.010421 57.322078 
L 243.135872 65.176299 
L 246.707816 74.746068 
L 250.726253 86.152374 
L 255.637675 100.807169 
L 262.33507 121.573775 
L 266.8 135.591387 
L 266.8 135.591387 
" style="fill:none;stroke:#f03e3e;stroke-linecap:square;stroke-linejoin:miter;stroke-width:2;"/>
   </g>
   <g id="line2d_77">
    <path clip-path="url(#pc41fda91fb)" d="M 44 141.071531 
L 46.678958 141.791475 
L 49.357916 142.727374 
L 52.036874 143.873889 
L 55.162325 145.468893 
L 58.287776 147.329235 
L 61.413226 149.440471 
L 64.98517 152.139418 
L 68.557114 155.117232 
L 72.575551 158.762913 
L 77.040481 163.12571 
L 82.398397 168.699951 
L 89.542285 176.497418 
L 103.383567 191.682213 
L 108.741483 197.193916 
L 113.206413 201.486607 
L 117.22485 205.056171 
L 120.796794 207.956781 
L 124.368737 210.570355 
L 127.494188 212.600867 
L 130.619639 214.375518 
L 133.74509 215.880531 
L 136.424048 216.947015 
L 139.103006 217.800693 
L 141.781964 218.436695 
L 144.460922 218.851391 
L 147.13988 219.042417 
L 149.818838 219.008683 
L 152.497796 218.75038 
L 155.176754 218.268983 
L 157.855711 217.567237 
L 160.534669 216.649147 
L 163.213627 215.51995 
L 166.339078 213.944398 
L 169.464529 212.102553 
L 172.58998 210.008717 
L 176.161924 207.328138 
L 179.733868 204.366897 
L 183.752305 200.737505 
L 188.217234 196.389638 
L 193.57515 190.828596 
L 200.719038 183.040251 
L 215.006814 167.372164 
L 220.364729 161.874669 
L 224.829659 157.597697 
L 228.848096 154.045078 
L 232.42004 151.161575 
L 235.991984 148.566852 
L 239.117435 146.554116 
L 242.242886 144.798292 
L 245.368337 143.313012 
L 248.047295 142.264045 
L 250.726253 141.428338 
L 253.40521 140.810657 
L 256.084168 140.414527 
L 258.763126 140.242207 
L 261.442084 140.294681 
L 264.121042 140.571649 
L 266.8 141.071531 
L 266.8 141.071531 
" style="fill:none;stroke:#1c7ed6;stroke-linecap:square;stroke-linejoin:miter;stroke-width:2;"/>
   </g>
   <g id="line2d_78">
    <path clip-path="url(#pc41fda91fb)" d="M 44 107.242707 
L 48.018437 107.401049 
L 52.036874 107.803948 
L 56.055311 108.446233 
L 60.073747 109.319666 
L 64.092184 110.413043 
L 68.557114 111.868712 
L 73.022044 113.555487 
L 77.933467 115.64589 
L 83.291383 118.161162 
L 89.988778 121.564181 
L 100.258116 127.076838 
L 110.973948 132.767663 
L 117.22485 135.854958 
L 122.582766 138.272952 
L 127.494188 140.254303 
L 131.959118 141.827234 
L 136.424048 143.156914 
L 140.442485 144.128159 
L 144.460922 144.872804 
L 148.479359 145.381295 
L 152.497796 145.647108 
L 156.516232 145.666835 
L 160.534669 145.440223 
L 164.553106 144.970177 
L 168.571543 144.262728 
L 172.58998 143.326952 
L 176.608417 142.174853 
L 181.073347 140.659097 
L 185.98477 138.733205 
L 191.342685 136.365624 
L 197.147094 133.547957 
L 204.737475 129.589913 
L 225.722645 118.476684 
L 231.527054 115.733909 
L 236.88497 113.455194 
L 241.796393 111.62564 
L 246.261323 110.208222 
L 250.27976 109.152064 
L 254.298196 108.317999 
L 258.316633 107.716726 
L 262.33507 107.35596 
L 266.353507 107.240329 
L 266.8 107.242707 
L 266.8 107.242707 
" style="fill:none;stroke:#adb5bd;stroke-linecap:square;stroke-linejoin:miter;stroke-width:2;"/>
   </g>
   <g id="line2d_79">
    <path clip-path="url(#pc41fda91fb)" d="M 44 134.740333 
L 266.8 134.740333 
L 266.8 134.740333 
" style="fill:none;stroke:#adb5bd;stroke-linecap:square;stroke-linejoin:miter;stroke-width:5;"/>
   </g>
   <g id="line2d_80">
    <path clip-path="url(#pc41fda91fb)" d="M 44 134.740333 
L 266.8 134.740333 
" style="fill:none;stroke:#000000;stroke-dasharray:7.4,3.2;stroke-dashoffset:0;stroke-linecap:square;stroke-linejoin:miter;stroke-width:2;"/>
   </g>
   <g id="patch_3">
    <path d="M 44 239.4 
L 44 16.6 
" style="fill:none;stroke:#000000;stroke-linecap:square;stroke-linejoin:miter;stroke-width:0.6;"/>
   </g>
   <g id="patch_4">
    <path d="M 266.8 239.4 
L 266.8 16.6 
" style="fill:none;stroke:#000000;stroke-linecap:square;stroke-linejoin:miter;stroke-width:0.6;"/>
   </g>
   <g id="patch_5">
    <path d="M 44 239.4 
L 266.8 239.4 
" style="fill:none;stroke:#000000;stroke-linecap:square;stroke-linejoin:miter;stroke-width:0.6;"/>
   </g>
   <g id="patch_6">
    <path d="M 44 16.6 
L 266.8 16.6 
" style="fill:none;stroke:#000000;stroke-linecap:square;stroke-linejoin:miter;stroke-width:0.6;"/>
   </g>
   <g id="text_17">
    <!-- EOFs -->
    <defs>
     <path d="M 7.796875 71.40625 
L 7.796875 0 
L 57.40625 0 
L 57.40625 8 
L 17.296875 8 
L 17.296875 32.703125 
L 54.40625 32.703125 
L 54.40625 40.703125 
L 17.296875 40.703125 
L 17.296875 63.40625 
L 57.09375 63.40625 
L 57.09375 71.40625 
z
" id="HelveticaNeue-69"/>
     <path d="M 13.296875 35.703125 
Q 13.296875 41.09375 14.6875 46.34375 
Q 16.09375 51.59375 19.09375 55.796875 
Q 22.09375 60 26.796875 62.546875 
Q 31.5 65.09375 38 65.09375 
Q 44.5 65.09375 49.203125 62.546875 
Q 53.90625 60 56.90625 55.796875 
Q 59.90625 51.59375 61.296875 46.34375 
Q 62.703125 41.09375 62.703125 35.703125 
Q 62.703125 30.296875 61.296875 25.046875 
Q 59.90625 19.796875 56.90625 15.59375 
Q 53.90625 11.40625 49.203125 8.84375 
Q 44.5 6.296875 38 6.296875 
Q 31.5 6.296875 26.796875 8.84375 
Q 22.09375 11.40625 19.09375 15.59375 
Q 16.09375 19.796875 14.6875 25.046875 
Q 13.296875 30.296875 13.296875 35.703125 
z
M 3.796875 35.703125 
Q 3.796875 28.40625 5.9375 21.65625 
Q 8.09375 14.90625 12.390625 9.703125 
Q 16.703125 4.5 23.09375 1.453125 
Q 29.5 -1.59375 38 -1.59375 
Q 46.5 -1.59375 52.890625 1.453125 
Q 59.296875 4.5 63.59375 9.703125 
Q 67.90625 14.90625 70.046875 21.65625 
Q 72.203125 28.40625 72.203125 35.703125 
Q 72.203125 43 70.046875 49.75 
Q 67.90625 56.5 63.59375 61.703125 
Q 59.296875 66.90625 52.890625 70 
Q 46.5 73.09375 38 73.09375 
Q 29.5 73.09375 23.09375 70 
Q 16.703125 66.90625 12.390625 61.703125 
Q 8.09375 56.5 5.9375 49.75 
Q 3.796875 43 3.796875 35.703125 
z
" id="HelveticaNeue-79"/>
     <path d="M 7.796875 71.40625 
L 7.796875 0 
L 17.296875 0 
L 17.296875 32.703125 
L 50.09375 32.703125 
L 50.09375 40.703125 
L 17.296875 40.703125 
L 17.296875 63.40625 
L 54.703125 63.40625 
L 54.703125 71.40625 
z
" id="HelveticaNeue-70"/>
     <path d="M 11.59375 16.296875 
L 3.09375 16.296875 
Q 3.296875 11.5 5.09375 8.140625 
Q 6.90625 4.796875 9.90625 2.75 
Q 12.90625 0.703125 16.796875 -0.1875 
Q 20.703125 -1.09375 25 -1.09375 
Q 28.90625 -1.09375 32.84375 -0.34375 
Q 36.796875 0.40625 39.9375 2.296875 
Q 43.09375 4.203125 45.046875 7.296875 
Q 47 10.40625 47 15.09375 
Q 47 18.796875 45.546875 21.296875 
Q 44.09375 23.796875 41.75 25.4375 
Q 39.40625 27.09375 36.34375 28.09375 
Q 33.296875 29.09375 30.09375 29.796875 
Q 27.09375 30.5 24.09375 31.140625 
Q 21.09375 31.796875 18.6875 32.75 
Q 16.296875 33.703125 14.75 35.140625 
Q 13.203125 36.59375 13.203125 38.796875 
Q 13.203125 40.796875 14.203125 42.046875 
Q 15.203125 43.296875 16.796875 44.046875 
Q 18.40625 44.796875 20.34375 45.09375 
Q 22.296875 45.40625 24.203125 45.40625 
Q 26.296875 45.40625 28.34375 44.953125 
Q 30.40625 44.5 32.09375 43.5 
Q 33.796875 42.5 34.890625 40.84375 
Q 36 39.203125 36.203125 36.703125 
L 44.703125 36.703125 
Q 44.40625 41.40625 42.703125 44.546875 
Q 41 47.703125 38.140625 49.546875 
Q 35.296875 51.40625 31.59375 52.15625 
Q 27.90625 52.90625 23.5 52.90625 
Q 20.09375 52.90625 16.640625 52.046875 
Q 13.203125 51.203125 10.453125 49.453125 
Q 7.703125 47.703125 5.953125 44.890625 
Q 4.203125 42.09375 4.203125 38.203125 
Q 4.203125 33.203125 6.703125 30.390625 
Q 9.203125 27.59375 12.953125 26.046875 
Q 16.703125 24.5 21.09375 23.640625 
Q 25.5 22.796875 29.25 21.75 
Q 33 20.703125 35.5 19 
Q 38 17.296875 38 14 
Q 38 11.59375 36.796875 10.046875 
Q 35.59375 8.5 33.75 7.703125 
Q 31.90625 6.90625 29.703125 6.59375 
Q 27.5 6.296875 25.5 6.296875 
Q 22.90625 6.296875 20.453125 6.796875 
Q 18 7.296875 16.046875 8.4375 
Q 14.09375 9.59375 12.890625 11.546875 
Q 11.703125 13.5 11.59375 16.296875 
z
" id="HelveticaNeue-115"/>
    </defs>
    <g transform="translate(144.3975 13.6)scale(0.09 -0.09)">
     <use xlink:href="#HelveticaNeue-69"/>
     <use x="61.099991" xlink:href="#HelveticaNeue-79"/>
     <use x="137.099976" xlink:href="#HelveticaNeue-70"/>
     <use x="194.499969" xlink:href="#HelveticaNeue-115"/>
    </g>
   </g>
   <g id="legend_1">
    <g id="line2d_81">
     <path d="M 48 23.5125 
L 60 23.5125 
" style="fill:none;stroke:#f03e3e;stroke-linecap:square;stroke-linejoin:miter;stroke-width:2;"/>
    </g>
    <g id="line2d_82"/>
    <g id="text_18">
     <!-- EOF1 -->
     <g transform="translate(64 26.3125)scale(0.08 -0.08)">
      <use xlink:href="#HelveticaNeue-69"/>
      <use x="61.099991" xlink:href="#HelveticaNeue-79"/>
      <use x="137.099976" xlink:href="#HelveticaNeue-70"/>
      <use x="194.499969" xlink:href="#HelveticaNeue-49"/>
     </g>
    </g>
    <g id="line2d_83">
     <path d="M 48 34.80125 
L 60 34.80125 
" style="fill:none;stroke:#adb5bd;stroke-linecap:square;stroke-linejoin:miter;stroke-width:2;"/>
    </g>
    <g id="line2d_84"/>
    <g id="text_19">
     <!-- EOF3 -->
     <defs>
      <path d="M 21.796875 40.5 
L 21.796875 33.296875 
Q 24.203125 33.59375 26.90625 33.59375 
Q 30.09375 33.59375 32.84375 32.75 
Q 35.59375 31.90625 37.59375 30.15625 
Q 39.59375 28.40625 40.796875 25.84375 
Q 42 23.296875 42 20 
Q 42 16.796875 40.75 14.25 
Q 39.5 11.703125 37.390625 9.953125 
Q 35.296875 8.203125 32.5 7.25 
Q 29.703125 6.296875 26.59375 6.296875 
Q 19.296875 6.296875 15.5 10.640625 
Q 11.703125 15 11.5 21.90625 
L 3 21.90625 
Q 2.90625 16.40625 4.546875 12.09375 
Q 6.203125 7.796875 9.296875 4.84375 
Q 12.40625 1.90625 16.796875 0.40625 
Q 21.203125 -1.09375 26.59375 -1.09375 
Q 31.59375 -1.09375 36.046875 0.25 
Q 40.5 1.59375 43.796875 4.296875 
Q 47.09375 7 49.046875 11.046875 
Q 51 15.09375 51 20.40625 
Q 51 26.796875 47.84375 31.5 
Q 44.703125 36.203125 38.203125 37.59375 
L 38.203125 37.796875 
Q 42.40625 39.703125 45.203125 43.390625 
Q 48 47.09375 48 51.90625 
Q 48 56.796875 46.34375 60.390625 
Q 44.703125 64 41.796875 66.296875 
Q 38.90625 68.59375 34.953125 69.75 
Q 31 70.90625 26.40625 70.90625 
Q 21.09375 70.90625 17.046875 69.203125 
Q 13 67.5 10.296875 64.5 
Q 7.59375 61.5 6.140625 57.296875 
Q 4.703125 53.09375 4.5 48 
L 13 48 
Q 13 51.09375 13.796875 53.890625 
Q 14.59375 56.703125 16.25 58.796875 
Q 17.90625 60.90625 20.453125 62.15625 
Q 23 63.40625 26.40625 63.40625 
Q 31.796875 63.40625 35.390625 60.546875 
Q 39 57.703125 39 52 
Q 39 49.203125 37.890625 47 
Q 36.796875 44.796875 34.9375 43.34375 
Q 33.09375 41.90625 30.640625 41.15625 
Q 28.203125 40.40625 25.5 40.40625 
L 23.703125 40.40625 
Q 23.203125 40.40625 22.703125 40.40625 
Q 22.296875 40.40625 21.796875 40.5 
z
" id="HelveticaNeue-51"/>
     </defs>
     <g transform="translate(64 37.60125)scale(0.08 -0.08)">
      <use xlink:href="#HelveticaNeue-69"/>
      <use x="61.099991" xlink:href="#HelveticaNeue-79"/>
      <use x="137.099976" xlink:href="#HelveticaNeue-70"/>
      <use x="194.499969" xlink:href="#HelveticaNeue-51"/>
     </g>
    </g>
    <g id="line2d_85">
     <path d="M 92.0075 23.5125 
L 104.0075 23.5125 
" style="fill:none;stroke:#1c7ed6;stroke-linecap:square;stroke-linejoin:miter;stroke-width:2;"/>
    </g>
    <g id="line2d_86"/>
    <g id="text_20">
     <!-- EOF2 -->
     <g transform="translate(108.0075 26.3125)scale(0.08 -0.08)">
      <use xlink:href="#HelveticaNeue-69"/>
      <use x="61.099991" xlink:href="#HelveticaNeue-79"/>
      <use x="137.099976" xlink:href="#HelveticaNeue-70"/>
      <use x="194.499969" xlink:href="#HelveticaNeue-50"/>
     </g>
    </g>
    <g id="line2d_87">
     <path d="M 92.0075 34.80125 
L 104.0075 34.80125 
" style="fill:none;stroke:#adb5bd;stroke-linecap:square;stroke-linejoin:miter;stroke-width:5;"/>
    </g>
    <g id="line2d_88"/>
    <g id="text_21">
     <!-- EOF4 -->
     <g transform="translate(108.0075 37.60125)scale(0.08 -0.08)">
      <use xlink:href="#HelveticaNeue-69"/>
      <use x="61.099991" xlink:href="#HelveticaNeue-79"/>
      <use x="137.099976" xlink:href="#HelveticaNeue-70"/>
      <use x="194.499969" xlink:href="#HelveticaNeue-52"/>
     </g>
    </g>
   </g>
  </g>
 </g>
 <defs>
  <clipPath id="pc41fda91fb">
   <rect height="222.8" width="222.8" x="44" y="16.6"/>
  </clipPath>
 </defs>
</svg>
